<svg xmlns="http://www.w3.org/2000/svg" xmlns:xlink="http://www.w3.org/1999/xlink" width="563" height="544" viewBox="0 0 563 544" fill="none"><rect x="0" y="0" width="0" height="0" fill="rgba(249, 249, 249, 1)" /><defs><filter id="filter_0" x="26" y="0" width="508" height="508" filterUnits="userSpaceOnUse" color-interpolation-filters="sRGB"><feFlood flood-opacity="0" result="BackgroundImageFix"/>
          <feColorMatrix in="SourceAlpha" type="matrix" values="0 0 0 0 0 0 0 0 0 0 0 0 0 0 0 0 0 0 127 0"/>
          <feOffset dx="0" dy="2"/>
          <feGaussianBlur stdDeviation="2"/>
          <feColorMatrix type="matrix" values="0 0 0 0 0 0 0 0 0 0 0 0 0 0 0 0 0 0 0.5 0"/>
          <feBlend mode="normal" in2="BackgroundImageFix" result="effect1_Shadow"/>
          <feBlend mode="normal" in="SourceGraphic" in2="effect1_Shadow" result="shape"/></filter><filter id="filter_1" x="0" y="0" width="560" height="508" filterUnits="userSpaceOnUse" color-interpolation-filters="sRGB"><feFlood flood-opacity="0" result="BackgroundImageFix"/>
          <feBlend mode="normal" in="SourceGraphic" in2="BackgroundImageFix" result="shape"/>
          <feGaussianBlur stdDeviation="2" result="effect1_foregroundBlur" /></filter></defs><g id="矩形 1" filter="url(#filter_1)"><g id="矩形 1" filter="url(#filter_0)"><path id="矩形 1" fill-rule="evenodd" style="fill:#000000" transform="translate(30 4)  rotate(0 250 250)" opacity="1" d="M0,2L0,498C0,499.1 0.9,500 2,500L498,500C499.1,500 500,499.1 500,498L500,2C500,0.9 499.1,0 498,0L2,0C0.9,0 0,0.9 0,2Z " /><path  id="矩形 1" style="stroke:#A6A6A6; stroke-width:1; stroke-opacity:1; stroke-dasharray:0 0" transform="translate(30 4)  rotate(0 250 250)" d="M0,2L0,498C0,499.1 0.9,500 2,500L498,500C499.1,500 500,499.1 500,498L500,2C500,0.9 499.1,0 498,0L2,0C0.9,0 0,0.9 0,2Z " /></g></g><path id="三角形 1" fill-rule="evenodd" style="fill:#FFFFFF" transform="translate(0 94)  rotate(0 225 225)" opacity="1" d="M41.87,337.5L408.13,337.5C410.55,337.5 412.79,336.21 413.99,334.11C415.2,332.02 415.2,329.43 413.99,327.34L230.86,10.15C229.65,8.06 227.42,6.77 225,6.77C222.58,6.77 220.35,8.06 219.14,10.15L36.01,327.35C34.8,329.44 34.8,332.02 36.01,334.11C37.22,336.21 39.45,337.5 41.87,337.5Z " /><path id="三角形 1" fill-rule="evenodd" style="fill:#FFFFFF" transform="translate(113 94)  rotate(0 225 225)" opacity="1" d="M41.87,337.5L408.13,337.5C410.55,337.5 412.79,336.21 413.99,334.11C415.2,332.02 415.2,329.43 413.99,327.34L230.86,10.15C229.65,8.06 227.42,6.77 225,6.77C222.58,6.77 220.35,8.06 219.14,10.15L36.01,327.35C34.8,329.44 34.8,332.02 36.01,334.11C37.22,336.21 39.45,337.5 41.87,337.5Z " /><path id="三角形 2" fill-rule="evenodd" style="fill:#000000" transform="translate(50 154)  rotate(0 175 175)" opacity="1" d="M23.45,262.5L326.55,262.5L175,0L23.45,262.5Z " /><path id="三角形 2" fill-rule="evenodd" style="fill:#000000" transform="translate(163 154)  rotate(0 175 175)" opacity="1" d="M23.45,262.5L326.55,262.5L175,0L23.45,262.5Z " /></svg>